<?xml version="1.0" standalone="no"?>
<!DOCTYPE svg PUBLIC "-//W3C//DTD SVG 20010904//EN"
 "http://www.w3.org/TR/2001/REC-SVG-20010904/DTD/svg10.dtd">
<svg version="1.0" xmlns="http://www.w3.org/2000/svg"
 width="160.000000pt" height="160.000000pt" viewBox="0 0 160.000000 160.000000"
 preserveAspectRatio="xMidYMid meet">
<metadata>
Created by potrace 1.10, written by Peter Selinger 2001-2011
</metadata>
<g transform="translate(0.000000,160.000000) scale(0.100000,-0.100000)"
fill="#000000" stroke="none">
<path d="M755 1235 c-37 -8 -64 -10 -71 -4 -26 22 -65 -21 -43 -47 17 -20 50
-17 56 5 9 37 244 60 338 33 60 -18 151 -72 135 -82 -9 -6 -7 -11 10 -20 12
-6 20 -14 17 -16 -3 -3 -22 4 -43 15 -91 49 -218 48 -397 -4 -45 -13 -94 -21
-108 -18 -29 5 -53 -16 -43 -40 10 -27 34 -28 58 -2 17 19 51 32 122 51 190
48 325 41 399 -21 l30 -25 -48 21 c-66 28 -130 33 -217 18 -41 -7 -94 -12
-117 -11 -45 1 -67 -15 -57 -42 8 -22 46 -20 66 3 21 24 137 44 227 39 50 -2
78 -10 114 -32 27 -15 46 -30 44 -33 -3 -2 -18 4 -33 14 -47 30 -202 23 -334
-15 -69 -20 -110 -27 -121 -22 -22 12 -52 -11 -48 -36 6 -27 55 -32 63 -6 9
28 184 74 302 80 77 4 96 1 130 -16 72 -37 104 -87 104 -165 1 -35 2 -39 11
-23 6 10 9 46 7 80 -8 124 -89 240 -207 299 -61 30 -74 32 -176 34 -64 1 -135
-4 -170 -12z m-67 -32 c-2 -10 -10 -18 -18 -18 -8 0 -16 8 -18 18 -2 12 3 17
18 17 15 0 20 -5 18 -17z m-33 -133 c0 -8 -8 -16 -17 -18 -13 -2 -18 3 -18 18
0 15 5 20 18 18 9 -2 17 -10 17 -18z m170 -10 c0 -8 -8 -16 -17 -18 -13 -2
-18 3 -18 18 0 15 5 20 18 18 9 -2 17 -10 17 -18z m-82 -76 c9 -10 -4 -34 -18
-34 -17 0 -28 17 -20 30 7 11 28 13 38 4z"/>
<path d="M811 1190 c-25 -5 -85 -22 -135 -37 -50 -14 -107 -27 -126 -27 -30
-1 -35 -4 -35 -26 0 -33 33 -39 55 -10 18 24 132 60 270 86 102 20 200 14 266
-16 60 -26 69 -18 12 11 -36 19 -61 23 -153 25 -60 2 -130 -1 -154 -6z m-251
-90 c0 -11 -6 -20 -14 -20 -18 0 -29 16 -21 30 11 18 35 11 35 -10z"/>
<path d="M260 813 c0 -2 9 -17 20 -35 23 -38 26 -64 8 -71 -7 -3 3 -6 22 -6
25 -1 31 2 20 9 -12 8 -11 15 7 54 19 39 20 45 6 50 -11 5 -14 2 -9 -10 3 -8
1 -25 -6 -37 l-11 -21 -8 22 c-5 12 -6 28 -4 35 3 7 -4 12 -20 12 -14 0 -25
-1 -25 -2z"/>
<path d="M402 804 c-25 -17 -31 -71 -10 -92 19 -19 66 -15 78 7 17 32 12 69
-12 85 -12 9 -25 16 -28 16 -3 0 -16 -7 -28 -16z m54 -29 c8 -31 0 -53 -22
-62 -19 -7 -34 13 -34 48 0 30 7 39 31 39 11 0 21 -10 25 -25z"/>
<path d="M505 758 c0 -51 2 -58 20 -58 15 0 16 3 7 9 -8 5 -12 22 -10 42 l3
34 29 -42 c16 -24 33 -43 37 -43 5 0 9 20 9 44 0 24 3 51 6 60 4 12 0 16 -15
16 -22 0 -29 -16 -10 -22 6 -2 9 -17 7 -33 l-3 -30 -25 37 c-40 59 -55 55 -55
-14z"/>
<path d="M650 809 c-19 -3 -29 -7 -22 -8 16 -1 16 -73 0 -89 -9 -9 -2 -12 34
-12 44 0 69 13 53 28 -4 4 -10 1 -12 -5 -3 -7 -13 -13 -24 -13 -16 0 -19 7
-19 45 0 38 3 45 19 45 11 0 22 -6 24 -12 4 -8 6 -7 6 3 1 22 -15 27 -59 18z"/>
<path d="M956 791 c3 -16 2 -36 -3 -46 -8 -13 -12 -8 -22 24 -15 50 -27 52
-35 6 -11 -57 -31 -41 -29 23 1 8 -20 12 -73 12 -64 0 -74 -2 -73 -17 0 -11 3
-13 6 -5 2 6 11 12 19 12 18 0 20 -86 2 -93 -7 -3 3 -5 22 -5 19 0 29 2 23 5
-19 7 -17 93 1 93 8 0 17 -6 19 -12 4 -10 6 -10 6 0 2 29 20 8 32 -38 15 -58
34 -65 43 -15 8 41 21 38 31 -6 9 -40 27 -32 40 19 5 22 13 44 18 48 13 13 7
24 -13 24 -16 0 -19 -5 -14 -29z"/>
<path d="M1020 800 c-38 -38 -16 -100 35 -100 26 0 55 33 55 62 0 22 -34 58
-55 58 -8 0 -24 -9 -35 -20z m55 -45 c0 -33 -3 -40 -20 -40 -16 0 -21 8 -23
43 -3 40 -2 43 20 40 20 -3 23 -9 23 -43z"/>
<path d="M1120 808 c0 -5 5 -8 10 -8 15 0 12 -87 -2 -93 -7 -3 -1 -6 13 -6 23
-1 26 2 21 24 -2 14 0 25 5 25 5 0 15 -11 21 -25 10 -22 18 -25 59 -24 27 0
42 3 36 6 -14 5 -18 43 -5 43 5 0 14 -11 20 -25 7 -14 20 -25 31 -25 19 0 18
2 -4 26 -31 33 -31 48 -3 68 12 9 19 18 16 21 -9 9 -38 -6 -38 -20 0 -7 -7
-19 -17 -26 -15 -13 -16 -11 -11 14 4 20 1 27 -11 27 -13 0 -15 -9 -13 -50 3
-40 1 -50 -11 -50 -19 0 -52 43 -37 48 5 2 10 14 10 27 0 20 -6 23 -45 27 -25
2 -45 0 -45 -4z m70 -28 c0 -11 -7 -20 -15 -20 -8 0 -15 9 -15 20 0 11 7 20
15 20 8 0 15 -9 15 -20z"/>
<path d="M303 625 c9 -175 179 -325 369 -325 61 0 167 20 234 43 25 9 46 12
56 6 20 -11 51 22 42 45 -9 23 -55 21 -61 -3 -7 -28 -128 -62 -243 -68 -80 -4
-104 -2 -151 16 -30 12 -64 28 -75 36 -11 9 2 6 36 -7 109 -42 236 -26 444 58
60 24 113 41 117 38 5 -3 18 -2 30 1 31 10 23 60 -11 60 -16 0 -28 -8 -35 -22
-10 -23 -143 -82 -270 -119 -92 -28 -226 -25 -292 5 -29 13 -53 28 -53 32 0 5
15 2 33 -7 79 -42 230 -26 398 41 48 20 97 34 109 33 26 -3 46 22 37 46 -9 22
-44 20 -57 -4 -13 -25 -42 -40 -151 -78 -123 -43 -221 -56 -294 -37 -31 9 -67
22 -78 30 -27 19 -14 19 43 -1 55 -20 140 -13 237 18 38 12 82 22 98 22 25 1
30 5 30 26 0 34 -30 38 -59 7 -28 -30 -160 -67 -242 -67 -56 0 -155 32 -141
46 3 3 14 1 25 -5 30 -16 151 -13 213 5 30 9 90 31 134 49 49 20 91 31 106 28
34 -6 55 18 39 46 -6 12 -15 21 -20 21 -20 0 -40 -13 -40 -26 0 -25 -217 -106
-316 -119 -107 -14 -190 36 -225 135 l-19 55 3 -60z m605 -22 c-2 -10 -10 -18
-18 -18 -8 0 -16 8 -18 18 -2 12 3 17 18 17 15 0 20 -5 18 -17z m100 -86 c2
-12 -3 -17 -17 -17 -12 0 -21 6 -21 13 0 31 32 34 38 4z m-170 -10 c2 -12 -3
-17 -17 -17 -12 0 -21 6 -21 13 0 31 32 34 38 4z m272 -12 c0 -16 -27 -27 -36
-14 -3 5 -3 16 0 24 6 17 36 9 36 -10z m-120 -115 c0 -11 -6 -20 -14 -20 -18
0 -29 16 -21 30 11 18 35 11 35 -10z"/>
</g>
</svg>
